<svg xmlns="http://www.w3.org/2000/svg" viewBox="0 0 149.19 79.3"><defs><style>.cls-1,.cls-2,.cls-4{fill:none;stroke-miterlimit:10;}.cls-1{stroke:#292929;stroke-width:4px;}.cls-2{stroke:#0af;}.cls-2,.cls-4{stroke-width:7px;}.cls-3{fill:#0af;}.cls-4{stroke:#f8f9fa;}</style></defs><title>Asset 4</title><g id="Layer_2" data-name="Layer 2"><g id="Layer_1-2" data-name="Layer 1"><path class="cls-1" d="M56,40c66.22-103.5,136,37,54,37-19,0-54.08.6-81,0C-16,76,17,0,56,40"/><line class="cls-2" x1="60" y1="32.04" x2="96.5" y2="68.54"/><path class="cls-3" d="M75.74,15.56c10.15,9.07,8.5,26.25-2.22,34.11-7.81,5.73-19.61,5.91-27.36,0-10.79-8.24-11-26.26,0-34.86C54.48,8.29,67.69,8.37,75.74,15.56Z"/><path class="cls-4" d="M44.57,32c2,1.22,4.13,2.6,6.32,4.18,2,1.45,3.83,2.89,5.5,4.29A98.56,98.56,0,0,1,69,23c1.21-1.34,2.43-2.6,3.64-3.8"/><path class="cls-3" d="M13.56,54c3.65,3.26,3.06,9.44-.8,12.26a8.49,8.49,0,0,1-9.83,0,8.16,8.16,0,0,1,0-12.53A8.58,8.58,0,0,1,13.56,54Z"/><path class="cls-3" d="M146.56,18c3.65,3.26,3.06,9.44-.8,12.26a8.49,8.49,0,0,1-9.83,0,8.16,8.16,0,0,1,0-12.53A8.58,8.58,0,0,1,146.56,18Z"/></g></g></svg>
